<svg width="22" height="14" viewBox="0 0 22 14" fill="none" xmlns="http://www.w3.org/2000/svg">
<path fill-rule="evenodd" clip-rule="evenodd" d="M11 12.284C9.83793 13.2437 8.33053 13.8231 6.68337 13.8231C3.00802 13.8231 0.0285645 10.9385 0.0285645 7.38029C0.0285645 3.82203 3.00802 0.9375 6.68337 0.9375C8.33053 0.9375 9.83793 1.51687 11 2.47659C12.1621 1.51687 13.6695 0.9375 15.3166 0.9375C18.992 0.9375 21.9714 3.82203 21.9714 7.38029C21.9714 10.9385 18.992 13.8231 15.3166 13.8231C13.6695 13.8231 12.1621 13.2437 11 12.284Z" fill="#ED0006"/>
<path fill-rule="evenodd" clip-rule="evenodd" d="M11 12.284C12.4309 11.1023 13.3382 9.34385 13.3382 7.38029C13.3382 5.41672 12.4309 3.65832 11 2.47659C12.1621 1.51687 13.6695 0.9375 15.3166 0.9375C18.992 0.9375 21.9714 3.82203 21.9714 7.38029C21.9714 10.9385 18.992 13.8231 15.3166 13.8231C13.6695 13.8231 12.1621 13.2437 11 12.284Z" fill="#F9A000"/>
<path fill-rule="evenodd" clip-rule="evenodd" d="M11 12.2839C12.4309 11.1022 13.3382 9.34378 13.3382 7.38023C13.3382 5.41668 12.4309 3.65829 11 2.47656C9.56916 3.65829 8.66187 5.41668 8.66187 7.38023C8.66187 9.34378 9.56916 11.1022 11 12.2839Z" fill="#FF5E00"/>
</svg>
