<?xml version="1.0" ?><svg enable-background="new 0 0 32 32" version="1.1" viewBox="0 0 32 32" xml:space="preserve" xmlns="http://www.w3.org/2000/svg" xmlns:xlink="http://www.w3.org/1999/xlink"><g id="Full"><g><linearGradient gradientUnits="userSpaceOnUse" id="SVGID_2_" x1="16" x2="16" y1="28.0037" y2="3.9963"><stop offset="0" style="stop-color:#FF2D76"/><stop offset="1" style="stop-color:#FB0000"/></linearGradient><path d="M31.68,9.177c0,0-0.312-2.354-1.271-3.39c-1.217-1.358-2.581-1.366-3.206-1.443    c-4.478-0.347-11.196-0.347-11.196-0.347h-0.015c0,0-6.717,0-11.194,0.347C4.172,4.42,2.81,4.428,1.592,5.787    C0.633,6.823,0.32,9.177,0.32,9.177S0,11.939,0,14.701v2.589c0,2.764,0.32,5.525,0.32,5.525s0.312,2.353,1.271,3.387    c1.218,1.358,2.816,1.317,3.528,1.459C7.679,27.923,16,28.004,16,28.004s6.724-0.012,11.203-0.355    c0.625-0.08,1.989-0.088,3.206-1.447c0.958-1.034,1.271-3.387,1.271-3.387S32,20.053,32,17.29v-2.589    C32,11.939,31.68,9.177,31.68,9.177z M12.004,22.002V9.998L22.007,16L12.004,22.002z" fill="url(#SVGID_2_)"/></g></g></svg>